<?xml version="1.0" encoding="utf-8"?>
<!-- Generator: Adobe Illustrator 26.0.0, SVG Export Plug-In . SVG Version: 6.00 Build 0)  -->
<svg version="1.1" id="Capa_1" xmlns="http://www.w3.org/2000/svg" xmlns:xlink="http://www.w3.org/1999/xlink" x="0px" y="0px"
	 viewBox="0 0 438.2 410.1" style="enable-background:new 0 0 438.2 410.1;" xml:space="preserve">
<style type="text/css">
	.st0{fill-rule:evenodd;clip-rule:evenodd;fill:#089FE3;}
	.st1{fill-rule:evenodd;clip-rule:evenodd;fill:#E60E7F;}
	.st2{fill-rule:evenodd;clip-rule:evenodd;fill:#12A0E3;}
	.st3{fill-rule:evenodd;clip-rule:evenodd;fill:#F6B6D3;}
	.st4{fill-rule:evenodd;clip-rule:evenodd;fill:#191919;}
	.st5{fill-rule:evenodd;clip-rule:evenodd;fill:#FFED17;}
	.st6{fill-rule:evenodd;clip-rule:evenodd;fill:#F49DC3;}
	.st7{fill-rule:evenodd;clip-rule:evenodd;fill:#F392BB;}
	.st8{fill-rule:evenodd;clip-rule:evenodd;fill:#ABABAB;}
	.st9{fill-rule:evenodd;clip-rule:evenodd;fill:#E6127F;}
	.st10{fill-rule:evenodd;clip-rule:evenodd;fill:#CBCACA;}
	.st11{fill-rule:evenodd;clip-rule:evenodd;fill:#FFF48D;}
	.st12{fill-rule:evenodd;clip-rule:evenodd;fill:#F5B0CF;}
</style>
<g>
	<g>
		<path class="st0" d="M264.2,0.1c13.5-0.8,25.5,3,36,11.5c20.5,19.5,32.7,43.3,36.5,71.5c2.5,20.5,1.8,40.8-2,61
			c-5.4,23.8-19.6,39.6-42.5,47.5c-57.6,13.9-115.1,28.1-172.5,42.5c-0.7-0.7-0.7-1.3,0-2c11-12.3,18-26.6,21-43
			c7.2-39.3,1.6-76.7-17-112c-8.6-14.6-20.4-25.8-35.5-33.5C147,29.1,205.7,14.6,264.2,0.1z"/>
	</g>
	<g>
		<path class="st1" d="M30.2,162.1c-2.1,0.6-2.4,1.6-1,3c3,21.1,9.5,41.1,19.5,60c6.4,11.8,15.9,19.9,28.5,24.5
			c4.6,1.2,9.3,1.5,14,1c43.5-11.3,87.2-21.8,131-31.5c2.8,9.5,6.1,18.9,10,28c-0.3,1.3-0.9,2.3-2,3c-8.6,2.4-17.2,4.4-26,6
			c-1.9,2.8-2.6,6.2-2,10c-3,37.6-17.7,69.8-44,96.5c-16.6,14.2-35.6,18.8-57,14c-12.4-2.5-23.1-8.2-32-17
			c-33.6-38-54.7-82.1-63.5-132.5c-5.9-31.2-7.3-62.5-4-94c2.7-23.1,11-43.7,25-62c32.7-31.4,62.1-28.4,88,9
			c9.7,16,15.6,33.3,17.5,52C98.2,142.1,64.2,152.1,30.2,162.1z"/>
	</g>
	<g>
		<path class="st2" d="M131.2,141.1c1,0,2,0,3,0c2.2,22.4-0.7,44-8.5,65c-6.9,16.6-18.8,28.1-35.5,34.5c-12.7,1-22.5-3.8-29.5-14.5
			c-11.2-17.4-18.4-36.4-21.5-57C70.2,160.3,100.8,151,131.2,141.1z"/>
	</g>
	<g>
		<path class="st3" d="M30.2,162.1c-0.6,0.9-0.9,1.9-1,3C27.8,163.7,28.2,162.7,30.2,162.1z"/>
	</g>
	<g>
		<path class="st4" d="M224.2,271.1c-1.8,1.4-2.5,3.4-2,6c-1.2,36-14.6,66.5-40,91.5c-13.7,11.2-29.3,17.3-47,18.5
			c-1.3,0.2-2.3-0.1-3-1c17.5-4.7,32-14,43.5-28c21-27.8,33.5-59.1,37.5-94c64.5-15.6,129-31.3,193.5-47c1,3.3,1.3,6.6,1,10
			C346.8,242.5,285.6,257.1,224.2,271.1z"/>
	</g>
	<g>
		<path class="st5" d="M156.2,396.1c-2.6,0.3-4.9,0-7-1c26.6-7.1,47.1-22.4,61.5-46c11.8-21.7,19-44.9,21.5-69.5
			c64.9-16,129.9-31.5,195-46.5c0.2,9.3,0,18.7-0.5,28c-0.4,8.7-1.9,17.2-4.5,25.5c-65,15-130,30-195,45c-8.4,21.4-21.8,39.1-40,53
			C177.8,390.9,167.5,394.7,156.2,396.1z"/>
	</g>
	<g>
		<path class="st6" d="M232.2,247.1c0.9,0.7,1.2,1.7,1,3c-1,0-2,0-3,0C231.3,249.4,232,248.4,232.2,247.1z"/>
	</g>
	<g>
		<path class="st7" d="M204.2,256.1c-0.6,3.4-1.3,6.8-2,10C201.7,262.3,202.3,258.9,204.2,256.1z"/>
	</g>
	<g>
		<path class="st8" d="M224.2,271.1c-0.5,2.1-1.2,4.1-2,6C221.8,274.5,222.4,272.5,224.2,271.1z"/>
	</g>
	<g>
		<path class="st9" d="M167.2,406.1c-0.3-0.7-0.7-1.3-1-2c23.5-7.3,42-21.3,55.5-42c4.9-7.1,8.7-14.8,11.5-23
			c68.3-15.5,136.7-30.7,205-45.5c-8.8,27.6-25.1,49.6-49,66c-46,30.2-96.7,46.9-152,50C213.8,410.9,190.4,409.8,167.2,406.1z"/>
	</g>
	<g>
		<path class="st10" d="M132.2,386.1c0.7,0.9,1.7,1.2,3,1c-2.8,1.1-5.8,1.3-9,0.5C128.2,386.8,130.2,386.3,132.2,386.1z"/>
	</g>
	<g>
		<path class="st11" d="M149.2,395.1c2.1,1,4.4,1.3,7,1c-5.5,1.2-11.2,1.3-17,0.5C142.6,396.1,145.9,395.6,149.2,395.1z"/>
	</g>
	<g>
		<path class="st12" d="M166.2,404.1c0.3,0.7,0.7,1.3,1,2C162.9,405.5,162.6,404.9,166.2,404.1z"/>
	</g>
</g>
</svg>
